<svg width="40" height="40" fill="none" xmlns="http://www.w3.org/2000/svg"><g clip-path="url(#clip0)"><path d="M40.05 8.35a16.456 16.456 0 01-4.728 1.297 8.247 8.247 0 003.619-4.55 16.518 16.518 0 01-5.225 1.994 8.207 8.207 0 00-6.004-2.597 8.226 8.226 0 00-8.012 10.1c-6.837-.344-12.897-3.619-16.956-8.597a8.195 8.195 0 00-1.113 4.137 8.228 8.228 0 003.66 6.85 8.219 8.219 0 01-3.729-1.03v.102c0 3.988 2.838 7.31 6.597 8.069a8.231 8.231 0 01-3.715.137c1.05 3.266 4.087 5.65 7.684 5.716a16.49 16.49 0 01-10.216 3.519 16.18 16.18 0 01-1.959-.116 23.242 23.242 0 0012.61 3.697c15.13 0 23.406-12.534 23.406-23.403 0-.356-.01-.716-.022-1.066 1.606-1.159 3-2.609 4.103-4.259z" fill="#FCA311"/></g><defs><clipPath id="clip0"><path fill="#fff" d="M0 0h40v40H0z"/></clipPath></defs></svg>