<svg width="40" height="40" fill="none" xmlns="http://www.w3.org/2000/svg"><path d="M36.91 5.242c-.6-.51-1.543-.582-2.517-.19h-.002c-1.025.41-29.009 12.414-30.148 12.904-.207.072-2.017.747-1.83 2.251.166 1.356 1.62 1.918 1.798 1.983l7.115 2.436c.472 1.57 2.212 7.368 2.596 8.606.24.772.632 1.786 1.317 1.995.602.232 1.2.02 1.587-.284l4.35-4.034 7.022 5.476.167.1c.477.211.933.317 1.37.317.336 0 .66-.064.968-.19 1.052-.432 1.473-1.434 1.517-1.548l5.245-27.262c.32-1.456-.125-2.196-.555-2.56zM17.6 25.6L15.2 32l-2.4-8 18.4-13.6-13.6 15.2z" fill="#FCA311"/></svg>